{"title":"Skyline (2010) 720p Blu-Ray x264.Dual-Audio.English 5.1.Hindi.Mu","uid":8910514,"size":792469243,"categoryP":"video","categoryS":"hd___movies","magnet":"?xt=urn:btih:9d31d93e2f7c299fe058f8e1399d836459846910&amp;dn=Skyline+%282010%29+720p+Blu-Ray+x264.Dual-Audio.English+5.1.Hindi.Mu&amp;tr=udp%3A%2F%2Ftracker.openbittorrent.com%3A80&amp;tr=udp%3A%2F%2Fopen.demonii.com%3A1337&amp;tr=udp%3A%2F%2Ftracker.coppersurfer.tk%3A6969&amp;tr=udp%3A%2F%2Fexodus.desync.com%3A6969","seeders":4,"leechers":2,"uploader":"manucs2004","files":-1,"time":1379009235,"description":"\n\n\nIMDB Rating: 4.4/10.0\n\n\nGENRE: Action | Sci-Fi | Thriller\n\n\n\nGeneral\nUnique ID : 197756829010384713499904315432450632835 (0x94C69472592A61899976F99C57ABAC83)\nComplete name : Skyline (2010) 720p Blu-Ray x264 [Dual-Audio] [English 5.1 + Hindi] - MultiSubs - Mafiaking.mkv\nFormat : Matroska\nFormat version : Version 2\nFile size : 749 MiB\nDuration : 1h 37mn\nOverall bit rate : 1 071 Kbps\nMovie name : Skyline (2010) 720p Blu-Ray x264 [Dual-Audio] [English 5.1 + Hindi] - MultiSubs - Mafiaking\nEncoded date : UTC 2013-09-01 13:36:05\nWriting application : mkvmerge v5.7.0 ('The Whirlwind') built on Jul 8 2012 20:08:51\nWriting library : libebml v1.2.3 + libmatroska v1.3.0\n\n\nvlcfile.png\n\n\nVideo\nID : 1\nFormat : AVC\nFormat/Info : Advanced Video Codec\nFormat profile : &lt;a class=&quot;__cf_email__&quot; href=&quot;/cdn-cgi/l/email-protection&quot; data-cfemail=&quot;fbb3929c93bbb7c8d5ca&quot;&gt;[email&amp;#160;protected]&lt;/a&gt;&lt;script cf-hash='f9e31' type=&quot;text/javascript&quot;&gt;\n/* &lt;![CDATA[ */!function(){try{var t=&quot;currentScript&quot;in document?document.currentScript:function(){for(var t=document.getElementsByTagName(&quot;script&quot;),e=t.length;e--;)if(t[e].getAttribute(&quot;cf-hash&quot;))return t[e]}();if(t&amp;&amp;t.previousSibling){var e,r,n,i,c=t.previousSibling,a=c.getAttribute(&quot;data-cfemail&quot;);if(a){for(e=&quot;&quot;,r=parseInt(a.substr(0,2),16),n=2;a.length-n;n+=2)i=parseInt(a.substr(n,2),16)^r,e+=String.fromCharCode(i);e=document.createTextNode(e),c.parentNode.replaceChild(e,c)}}}catch(u){}}();/* ]]&gt; */&lt;/script&gt;\nFormat settings, CABAC : Yes\nFormat settings, ReFrames : 4 frames\nMuxing mode : Header stripping\nCodec ID : V_MPEG4/ISO/AVC\nDuration : 1h 37mn\nBit rate : 793 Kbps\nNominal bit rate : 874 Kbps\nWidth : 1 280 pixels\nHeight : 544 pixels\nDisplay aspect ratio : 2.35:1\nFrame rate mode : Constant\nFrame rate : 23.976 fps\nColor space : YUV\nChroma subsampling : 4:2:0\nBit depth : 8 bits\nScan type : Progressive\nBits/(Pixel*Frame) : 0.048\nStream size : 555 MiB (74%)\nTitle : Mafiaking\n\nLanguage : English\nDefault : Yes\nForced : No\n\n\nmusicfile1.png\n\n\nAudio #1\nID : 2\nFormat : AC-3\nFormat/Info : Audio Coding 3\nMode extension : CM (complete main)\nFormat settings, Endianness : Big\nMuxing mode : Header stripping\nCodec ID : A_AC3\nDuration : 1h 37mn\nBit rate mode : Constant\nBit rate : 128 Kbps\nChannel(s) : 2 channels\nChannel positions : Front: L R\nSampling rate : 44.1 KHz\nBit depth : 16 bits\nCompression mode : Lossy\nStream size : 89.6 MiB (12%)\nTitle : Mafiaking\nLanguage : Hindi\nDefault : Yes\nForced : No\n\n\nmusicfile1.png\n\n\nAudio #2\nID : 3\nFormat : AC-3\nFormat/Info : Audio Coding 3\nMode extension : CM (complete main)\nFormat settings, Endianness : Big\nMuxing mode : Header stripping\nCodec ID : A_AC3\nDuration : 1h 37mn\nBit rate mode : Constant\nBit rate : 128 Kbps\nChannel(s) : 6 channels\nChannel positions : Front: L C R, Side: L R, LFE\nSampling rate : 48.0 KHz\nBit depth : 16 bits\nCompression mode : Lossy\nStream size : 89.6 MiB (12%)\nTitle : Mafiaking\nLanguage : English\nDefault : No\nForced : No\n\n\n\n\n\n\n\nSAMPLE WITH IN TORRENT (IN DUAL AUDIO)\n\n\n\nscreensx.png\n\n\n183239515e6ed04ac6def69b31c6f6d18e073c1b.jpg\n\n1832395050e77c0f9aa7c49801f1283c54073450.jpg\n\n183239495fc9cd06d69cf91c49007160ba87b0af.jpg\n\n18323948bd720aea647cbc1d41e62bc6a9775597.jpg\n\n18323947ce30005ef1dd0c9c63806a43fdd49137.jpg\n\n183239466110ff31d36924c8a3ee3e36978ed5b7.jpg\n\n1832394565319638eb2855ca88fea407cd9ea137.jpg\n\n1832395293df10893e7d08ed54d93dbed34fcbe7.jpg\n\n18323944807273e9e7e29670a9e5a2cf8d296cab.jpg\n\n18323943fed25d37d4dd473b21bff85d2cb42a1a.jpg\n\n18323942a54851f2d4426520f296494a308c742f.jpg\n\n\nRespects To ::- SaM,oziman,Taker And All The Staff's Of Extratorrent And Team EXD!!!\n\nGreetz To ::- K@rtik | Sonic | @King | Abdullah | Imkhan | Sophie | Rohit And All Other Members of Team EXD!!\n\n\n1706719726c7ab30a04b42298528b1fda3792ba1.gif","torrent":{"xt":"urn:btih:9d31d93e2f7c299fe058f8e1399d836459846910","amp;dn":"Skyline+%282010%29+720p+Blu-Ray+x264.Dual-Audio.English+5.1.Hindi.Mu","amp;tr":["udp%3A%2F%2Ftracker.openbittorrent.com%3A80","udp%3A%2F%2Fopen.demonii.com%3A1337","udp%3A%2F%2Ftracker.coppersurfer.tk%3A6969","udp%3A%2F%2Fexodus.desync.com%3A6969"],"infoHash":"9d31d93e2f7c299fe058f8e1399d836459846910","infoHashBuffer":{"type":"Buffer","data":[157,49,217,62,47,124,41,159,224,88,248,225,57,157,131,100,89,132,105,16]},"announce":[],"urlList":[]}}